<?xml version="1.0" standalone="no"?>
<!DOCTYPE svg PUBLIC "-//W3C//DTD SVG 20010904//EN"
 "http://www.w3.org/TR/2001/REC-SVG-20010904/DTD/svg10.dtd">
<svg version="1.0" xmlns="http://www.w3.org/2000/svg"
 width="192.000000pt" height="192.000000pt" viewBox="0 0 192.000000 192.000000"
 preserveAspectRatio="xMidYMid meet">

<g transform="translate(0.000000,192.000000) scale(0.100000,-0.100000)"
fill="#000000" stroke="none">
<path d="M747 1377 c-34 -36 -71 -65 -107 -80 -77 -34 -91 -53 -100 -134 -5
-48 -16 -85 -39 -124 -17 -31 -31 -66 -31 -79 0 -13 14 -48 31 -79 21 -37 34
-77 40 -125 10 -82 24 -99 99 -133 36 -15 73 -44 107 -80 l52 -56 58 8 c73 10
133 10 206 0 l58 -8 52 56 c34 36 71 65 107 80 77 34 91 53 100 137 6 51 15
82 35 111 42 64 43 98 5 166 -24 41 -35 77 -40 126 -9 81 -23 100 -100 134
-36 15 -73 44 -107 80 l-52 56 -58 -8 c-32 -4 -78 -8 -103 -8 -25 0 -71 4
-103 8 l-58 8 -52 -56z m21 -404 c-3 -123 -4 -125 -31 -149 -32 -27 -57 -31
-57 -9 0 8 4 15 9 15 5 0 17 7 25 16 13 12 16 38 16 120 l0 104 -25 0 c-15 0
-25 6 -25 14 0 17 23 23 63 18 l29 -5 -4 -124z m102 111 c0 -8 -7 -14 -15 -14
-12 0 -15 -17 -15 -95 l0 -95 50 0 c38 0 50 4 50 15 0 8 7 15 15 15 10 0 15
-10 15 -30 l0 -30 -90 0 c-73 0 -90 3 -90 15 0 8 5 15 10 15 6 0 10 38 10 95
0 57 -4 95 -10 95 -5 0 -10 6 -10 14 0 9 12 16 33 18 39 4 47 1 47 -18z m390
0 c0 -8 -9 -14 -19 -14 -15 0 -29 -24 -64 -106 -24 -58 -48 -105 -53 -106 -5
0 -29 47 -54 105 -28 67 -51 108 -62 110 -35 10 -18 27 27 27 32 0 45 -4 45
-14 0 -8 -5 -16 -10 -18 -9 -3 37 -128 52 -143 2 -2 18 29 36 70 17 41 27 75
21 75 -13 0 -11 28 2 32 24 8 79 -5 79 -18z"/>
</g>
</svg>
